#N canvas 0 38 1512 916 12;
#X obj 474 487 hsl 162 19 0 127 0 0 d1 id1 onset_count -2 -10 0 12 #00faff #000000 #000000 0 1;
#X obj 474 527 hsl 162 19 0 127 0 0 d2 id2 start -2 -10 0 12 #00faff #000000 #000000 0 1;
#X obj 474 567 hsl 162 19 0 127 0 0 d3 id3 center -2 -10 0 12 #00faff #000000 #000000 0 1;
#X obj 474 607 hsl 162 19 0 127 0 0 d4 id4 syncopation -2 -10 0 12 #00faff #000000 #000000 0 1;
#X obj 474 647 hsl 162 19 0 127 0 0 d5 id5 balance -2 -10 0 12 #00faff #000000 #000000 0 1;
#X obj 935 557 unpack 0 0 0 0 0 0 0 0 0 0 0 0 0 0 0 0, f 39;
#X obj 935 532 r pattern;
#X obj 1096 81 loadbang;
#X floatatom 1096 127 5 0 0 0 - - - 0;
#X obj 1064 126 tgl 19 0 empty empty empty 0 -10 0 12 #ff0400 #000000 #000000 0 1;
#X obj 1064 150 metro;
#X obj 998 44 loadbang;
#X obj 998 107 bng 19 250 50 0 empty empty empty 0 -10 0 12 #ff0400 #000000 #000000;
#X obj 1014 72 sel 0;
#X msg 998 131 -1;
#X obj 1064 173 bng 19 250 50 0 empty empty empty 0 -10 0 12 #fcfcfc #000000 #000000;
#X obj 1064 197 int 1;
#X obj 1134 230 + 1;
#X floatatom 1064 240 5 0 0 0 - - - 0;
#X obj 1064 375 + 1;
#X floatatom 1064 398 5 0 0 0 - - - 0;
#X obj 688 440 sel 1;
#X obj 738 440 sel 2;
#X obj 788 440 sel 3;
#X obj 838 440 sel 4;
#X obj 888 440 sel 5;
#X obj 938 440 sel 6;
#X obj 988 440 sel 7;
#X obj 1038 440 sel 8;
#X obj 688 464 bng 19 250 50 0 empty empty empty 0 -10 0 12 #fcfcfc #000000 #000000;
#X obj 738 464 bng 19 250 50 0 empty empty empty 0 -10 0 12 #fcfcfc #000000 #000000;
#X obj 788 464 bng 19 250 50 0 empty empty empty 0 -10 0 12 #fcfcfc #000000 #000000;
#X obj 838 464 bng 19 250 50 0 empty empty empty 0 -10 0 12 #fcfcfc #000000 #000000;
#X obj 888 464 bng 19 250 50 0 empty empty empty 0 -10 0 12 #fcfcfc #000000 #000000;
#X obj 938 464 bng 19 250 50 0 empty empty empty 0 -10 0 12 #fcfcfc #000000 #000000;
#X obj 988 464 bng 19 250 50 0 empty empty empty 0 -10 0 12 #fcfcfc #000000 #000000;
#X obj 1038 464 bng 19 250 50 0 empty empty empty 0 -10 0 12 #fcfcfc #000000 #000000;
#X obj 1086 464 bng 19 250 50 0 empty empty empty 0 -10 0 12 #fcfcfc #000000 #000000;
#X obj 1136 464 bng 19 250 50 0 empty empty empty 0 -10 0 12 #fcfcfc #000000 #000000;
#X obj 1186 464 bng 19 250 50 0 empty empty empty 0 -10 0 12 #fcfcfc #000000 #000000;
#X obj 1236 464 bng 19 250 50 0 empty empty empty 0 -10 0 12 #fcfcfc #000000 #000000;
#X obj 1286 464 bng 19 250 50 0 empty empty empty 0 -10 0 12 #fcfcfc #000000 #000000;
#X obj 1336 464 bng 19 250 50 0 empty empty empty 0 -10 0 12 #fcfcfc #000000 #000000;
#X obj 1386 464 bng 19 250 50 0 empty empty empty 0 -10 0 12 #fcfcfc #000000 #000000;
#X obj 1436 464 bng 19 250 50 0 empty empty empty 0 -10 0 12 #fcfcfc #000000 #000000;
#X obj 1086 440 sel 9;
#X obj 1136 440 sel 10;
#X obj 1186 440 sel 11;
#X obj 1236 440 sel 12;
#X obj 1286 440 sel 13;
#X obj 1336 440 sel 14;
#X obj 1386 440 sel 15;
#X obj 1436 440 sel 16;
#X obj 1136 488 s s10;
#X obj 1186 488 s s11;
#X obj 1236 488 s s12;
#X obj 1286 488 s s13;
#X obj 1336 488 s s14;
#X obj 1386 488 s s15;
#X obj 1436 488 s s16;
#X obj 688 488 s s01;
#X obj 738 488 s s02;
#X obj 788 488 s s03;
#X obj 838 488 s s04;
#X obj 888 488 s s05;
#X obj 938 488 s s06;
#X obj 988 488 s s07;
#X obj 1038 488 s s08;
#X obj 1086 488 s s09;
#X obj 343 741 r s01;
#X obj 343 765 bng 19 250 50 0 empty empty empty 0 -10 0 12 #fcfcfc #000000 #000000;
#X obj 1064 352 % 16;
#X obj 413 765 bng 19 250 50 0 empty empty empty 0 -10 0 12 #fcfcfc #000000 #000000;
#X obj 483 765 bng 19 250 50 0 empty empty empty 0 -10 0 12 #fcfcfc #000000 #000000;
#X obj 553 765 bng 19 250 50 0 empty empty empty 0 -10 0 12 #fcfcfc #000000 #000000;
#X obj 623 765 bng 19 250 50 0 empty empty empty 0 -10 0 12 #fcfcfc #000000 #000000;
#X obj 693 765 bng 19 250 50 0 empty empty empty 0 -10 0 12 #fcfcfc #000000 #000000;
#X obj 763 765 bng 19 250 50 0 empty empty empty 0 -10 0 12 #fcfcfc #000000 #000000;
#X obj 833 765 bng 19 250 50 0 empty empty empty 0 -10 0 12 #fcfcfc #000000 #000000;
#X obj 903 765 bng 19 250 50 0 empty empty empty 0 -10 0 12 #fcfcfc #000000 #000000;
#X obj 973 765 bng 19 250 50 0 empty empty empty 0 -10 0 12 #fcfcfc #000000 #000000;
#X obj 1043 765 bng 19 250 50 0 empty empty empty 0 -10 0 12 #fcfcfc #000000 #000000;
#X obj 1113 765 bng 19 250 50 0 empty empty empty 0 -10 0 12 #fcfcfc #000000 #000000;
#X obj 1183 765 bng 19 250 50 0 empty empty empty 0 -10 0 12 #fcfcfc #000000 #000000;
#X obj 1253 765 bng 19 250 50 0 empty empty empty 0 -10 0 12 #fcfcfc #000000 #000000;
#X obj 1323 765 bng 19 250 50 0 empty empty empty 0 -10 0 12 #fcfcfc #000000 #000000;
#X obj 1393 765 bng 19 250 50 0 empty empty empty 0 -10 0 12 #fcfcfc #000000 #000000;
#X obj 413 741 r s02;
#X obj 483 741 r s03;
#X obj 553 741 r s04;
#X obj 623 741 r s05;
#X obj 693 741 r s06;
#X obj 763 741 r s07;
#X obj 833 741 r s08;
#X obj 903 741 r s09;
#X obj 973 741 r s10;
#X obj 1043 741 r s11;
#X obj 1113 741 r s12;
#X obj 1183 741 r s13;
#X obj 1253 741 r s14;
#X obj 1323 741 r s15;
#X obj 1393 741 r s16;
#X obj 1204 278 % 4;
#X obj 1204 356 bng 19 250 50 0 empty empty empty 0 -10 0 12 #fcfcfc #000000 #000000;
#X obj 1247 356 bng 19 250 50 0 empty empty empty 0 -10 0 12 #fcfcfc #000000 #000000;
#X obj 1290 356 bng 19 250 50 0 empty empty empty 0 -10 0 12 #fcfcfc #000000 #000000;
#X obj 1333 356 bng 19 250 50 0 empty empty empty 0 -10 0 12 #fcfcfc #000000 #000000;
#X obj 613 258 bng 19 250 50 0 empty empty empty 0 -10 0 12 #fcfcfc #000000 #000000;
#X obj 856 878 s onset;
#X obj 613 316 readsf~;
#X obj 613 374 dac~;
#X obj 613 340 *~ 0.3;
#X obj 408 487 ctlin 1;
#X obj 408 527 ctlin 2;
#X obj 408 567 ctlin 3;
#X obj 408 607 ctlin 4;
#X obj 408 647 ctlin 5;
#X obj 705 611 s p01;
#X obj 754 611 s p02;
#X obj 803 611 s p03;
#X obj 852 611 s p04;
#X obj 901 611 s p05;
#X obj 950 611 s p06;
#X obj 999 611 s p07;
#X obj 1048 611 s p08;
#X obj 1097 611 s p09;
#X obj 1146 611 s p10;
#X obj 1195 611 s p11;
#X obj 1244 611 s p12;
#X obj 1293 611 s p13;
#X obj 1342 611 s p14;
#X obj 1391 611 s p15;
#X obj 1440 611 s p16;
#X obj 361 791 r p01;
#X obj 431 791 r p02;
#X obj 501 791 r p03;
#X obj 571 791 r p04;
#X obj 641 791 r p05;
#X obj 711 791 r p06;
#X obj 781 791 r p07;
#X obj 852 791 r p08;
#X obj 921 791 r p09;
#X obj 991 791 r p10;
#X obj 1061 791 r p11;
#X obj 1131 791 r p12;
#X obj 1201 791 r p13;
#X obj 1271 791 r p14;
#X obj 1341 791 r p15;
#X obj 1411 791 r p16;
#X msg 1096 104 240;
#X obj 1157 278 % 16;
#X obj 1157 356 bng 19 250 50 0 empty empty empty 0 -10 0 12 #fcfcfc #000000 #000000;
#X obj 1157 380 s mi;
#X obj 824 62 bng 19 250 50 0 empty empty empty 0 -10 0 12 #fcfcfc #000000 #000000;
#X obj 825 120 readsf~;
#X obj 825 178 dac~;
#X obj 824 28 r mi;
#X obj 1157 332 sel 0;
#X floatatom 361 815 5 0 0 0 - - - 0;
#X floatatom 431 815 5 0 0 0 - - - 0;
#X floatatom 501 815 5 0 0 0 - - - 0;
#X floatatom 571 815 5 0 0 0 - - - 0;
#X floatatom 641 815 5 0 0 0 - - - 0;
#X floatatom 711 815 5 0 0 0 - - - 0;
#X floatatom 781 815 5 0 0 0 - - - 0;
#X floatatom 852 815 5 0 0 0 - - - 0;
#X floatatom 921 815 5 0 0 0 - - - 0;
#X floatatom 991 815 5 0 0 0 - - - 0;
#X floatatom 1061 815 5 0 0 0 - - - 0;
#X floatatom 1131 815 5 0 0 0 - - - 0;
#X floatatom 1201 815 5 0 0 0 - - - 0;
#X floatatom 1271 815 5 0 0 0 - - - 0;
#X floatatom 1341 815 5 0 0 0 - - - 0;
#X floatatom 1411 815 5 0 0 0 - - - 0;
#X obj 1204 332 sel 0;
#X obj 1247 332 sel 1;
#X obj 1290 332 sel 2;
#X obj 1333 332 sel 3;
#X obj 1204 380 s m0;
#X obj 1247 380 s m1;
#X obj 1290 380 s m2;
#X obj 1333 380 s m3;
#X obj 613 224 r m1;
#X obj 649 224 r m2;
#X obj 685 224 r m3;
#X obj 343 844 f;
#X obj 413 844 f;
#X obj 483 844 f;
#X obj 553 844 f;
#X obj 623 844 f;
#X obj 693 844 f;
#X obj 763 844 f;
#X obj 834 844 f;
#X obj 903 844 f;
#X obj 973 844 f;
#X obj 1043 844 f;
#X obj 1113 844 f;
#X obj 1183 844 f;
#X obj 1253 844 f;
#X obj 1323 844 f;
#X obj 1393 844 f;
#X obj 825 144 *~ 0.1;
#X obj 27 689 list prepend send;
#X obj 27 713 list trim;
#X obj 27 837 netsend -u -b;
#X msg 47 742 disconnect;
#X obj 27 861 tgl 19 0 empty empty empty 0 -10 0 12 #fcfcfc #000000 #000000 0 1;
#X obj 77 774 loadbang;
#X msg 77 798 connect localhost 12345;
#X obj 27 615 oscformat -f -s genpattern;
#X floatatom 25 509 5 0 0 0 - - - 0;
#X floatatom 65 509 5 0 0 0 - - - 0;
#X floatatom 105 509 5 0 0 0 - - - 0;
#X floatatom 145 509 5 0 0 0 - - - 0;
#X floatatom 185 509 5 0 0 0 - - - 0;
#X obj 25 485 r d1;
#X obj 65 485 r d2;
#X obj 105 485 r d3;
#X obj 145 485 r d4;
#X obj 185 485 r d5;
#X obj 5 547 bng 19 250 50 0 empty empty empty 0 -10 0 12 #fcfcfc #000000 #000000;
#X obj 613 121 readsf~;
#X obj 613 186 dac~;
#X obj 613 61 t b f;
#X obj 759 97 pow 2;
#X obj 613 152 *~ 0.8;
#X obj 613 31 r onset;
#X obj 27 591 pack \$1 \$2 \$3 \$4 \$5;
#X obj 27 9 netreceive -u -b 12346;
#X obj 27 33 oscparse;
#X obj 27 57 list trim;
#X obj 27 95 route getpattern;
#X obj 27 118 s pattern;
#X obj 826 258 bng 19 250 50 0 empty empty empty 0 -10 0 12 #fcfcfc #000000 #000000;
#X obj 826 316 readsf~;
#X obj 826 374 dac~;
#X obj 826 224 r m0;
#X obj 826 340 *~ 0.1;
#N canvas 0 22 450 278 (subpatch) 0;
#X array pattern_graph 16 float 5;
#A 0 0 0 0 1 1 1 0.99 1 0.41 0.91 0.44 0.97 0.49 0.99 1 0.93;
#X coords 0 1 15 -1 512 159 1 0 0;
#X restore 29 182 graph;
#X obj 980 386 s cursor;
#X obj 29 341 hradio 32 1 0 16 empty cursor empty 0 -10 0 12 #fcfcfc #000000 #000000 0;
#X msg 29 415 \; pattern_graph 0 \$1 \$2 \$3 \$4 \$5 \$6 \$7 \$8 \$9 \$10 \$11 \$12 \$13 \$14 \$15 \$16, f 72;
#X obj 29 392 r pattern;
#X obj 114 390 loadbang;
#X msg 613 292 open wav/rim1.wav \, 1;
#X msg 826 292 open wav/rim2.wav \, 1;
#X msg 824 96 open wav/bell.wav \, 1;
#X msg 613 97 open wav/tom.wav \, 1;
#X obj 714 695 hsl 162 19 0 31 0 0 is empty step -2 -10 0 12 #ff8300 #000000 #000000 0 1;
#X obj 648 695 ctlin 7;
#X obj 153 85 route getinterpolation;
#X obj 232 485 r ii;
#X obj 299 485 r is;
#X floatatom 232 531 5 0 0 0 - - - 0;
#X floatatom 299 531 5 0 0 0 - - - 0;
#X obj 232 607 pack \$1 \$2;
#X obj 232 508 int;
#X obj 299 508 int;
#X obj 153 138 s id1;
#X obj 203 138 s id2;
#X obj 253 138 s id3;
#X obj 303 138 s id4;
#X obj 353 138 s id5;
#X obj 232 630 oscformat -f -s interp;
#X obj 299 553 change;
#X obj 280 581 bng 19 250 50 0 empty empty empty 0 -10 0 12 #fcfcfc #000000 #000000;
#X obj 232 555 change;
#X obj 474 695 hsl 162 19 0 2999 0 0 ii empty index -2 -10 0 12 #ff8300 #000000 #000000 0 1;
#X obj 408 695 ctlin 6;
#X obj 153 108 unpack 0 0 0 0 0 s;
#X symbolatom 888 695 10 0 0 0 - itype - 0;
#X obj 403 138 s itype;
#X connect 5 0 117 0;
#X connect 5 1 118 0;
#X connect 5 2 119 0;
#X connect 5 3 120 0;
#X connect 5 4 121 0;
#X connect 5 5 122 0;
#X connect 5 6 123 0;
#X connect 5 7 124 0;
#X connect 5 8 125 0;
#X connect 5 9 126 0;
#X connect 5 10 127 0;
#X connect 5 11 128 0;
#X connect 5 12 129 0;
#X connect 5 13 130 0;
#X connect 5 14 131 0;
#X connect 5 15 132 0;
#X connect 6 0 5 0;
#X connect 7 0 149 0;
#X connect 7 0 9 0;
#X connect 8 0 10 1;
#X connect 9 0 10 0;
#X connect 10 0 15 0;
#X connect 11 0 12 0;
#X connect 12 0 14 0;
#X connect 13 0 12 0;
#X connect 14 0 16 0;
#X connect 15 0 16 0;
#X connect 16 0 17 0;
#X connect 16 0 18 0;
#X connect 17 0 16 1;
#X connect 18 0 71 0;
#X connect 18 0 102 0;
#X connect 18 0 150 0;
#X connect 19 0 20 0;
#X connect 20 0 21 0;
#X connect 20 0 22 0;
#X connect 20 0 23 0;
#X connect 20 0 24 0;
#X connect 20 0 25 0;
#X connect 20 0 26 0;
#X connect 20 0 27 0;
#X connect 20 0 28 0;
#X connect 20 0 45 0;
#X connect 20 0 46 0;
#X connect 20 0 47 0;
#X connect 20 0 48 0;
#X connect 20 0 49 0;
#X connect 20 0 50 0;
#X connect 20 0 51 0;
#X connect 20 0 52 0;
#X connect 21 0 29 0;
#X connect 22 0 30 0;
#X connect 23 0 31 0;
#X connect 24 0 32 0;
#X connect 25 0 33 0;
#X connect 26 0 34 0;
#X connect 27 0 35 0;
#X connect 28 0 36 0;
#X connect 29 0 60 0;
#X connect 30 0 61 0;
#X connect 31 0 62 0;
#X connect 32 0 63 0;
#X connect 33 0 64 0;
#X connect 34 0 65 0;
#X connect 35 0 66 0;
#X connect 36 0 67 0;
#X connect 37 0 68 0;
#X connect 38 0 53 0;
#X connect 39 0 54 0;
#X connect 40 0 55 0;
#X connect 41 0 56 0;
#X connect 42 0 57 0;
#X connect 43 0 58 0;
#X connect 44 0 59 0;
#X connect 45 0 37 0;
#X connect 46 0 38 0;
#X connect 47 0 39 0;
#X connect 48 0 40 0;
#X connect 49 0 41 0;
#X connect 50 0 42 0;
#X connect 51 0 43 0;
#X connect 52 0 44 0;
#X connect 69 0 70 0;
#X connect 70 0 185 0;
#X connect 71 0 19 0;
#X connect 71 0 239 0;
#X connect 72 0 186 0;
#X connect 73 0 187 0;
#X connect 74 0 188 0;
#X connect 75 0 189 0;
#X connect 76 0 190 0;
#X connect 77 0 191 0;
#X connect 78 0 192 0;
#X connect 79 0 193 0;
#X connect 80 0 194 0;
#X connect 81 0 195 0;
#X connect 82 0 196 0;
#X connect 83 0 197 0;
#X connect 84 0 198 0;
#X connect 85 0 199 0;
#X connect 86 0 200 0;
#X connect 87 0 72 0;
#X connect 88 0 73 0;
#X connect 89 0 74 0;
#X connect 90 0 75 0;
#X connect 91 0 76 0;
#X connect 92 0 77 0;
#X connect 93 0 78 0;
#X connect 94 0 79 0;
#X connect 95 0 80 0;
#X connect 96 0 81 0;
#X connect 97 0 82 0;
#X connect 98 0 83 0;
#X connect 99 0 84 0;
#X connect 100 0 85 0;
#X connect 101 0 86 0;
#X connect 102 0 174 0;
#X connect 102 0 175 0;
#X connect 102 0 176 0;
#X connect 102 0 177 0;
#X connect 103 0 178 0;
#X connect 104 0 179 0;
#X connect 105 0 180 0;
#X connect 106 0 181 0;
#X connect 109 0 111 0;
#X connect 111 0 110 0;
#X connect 111 0 110 1;
#X connect 112 0 0 0;
#X connect 113 0 1 0;
#X connect 114 0 2 0;
#X connect 115 0 3 0;
#X connect 116 0 4 0;
#X connect 133 0 158 0;
#X connect 134 0 159 0;
#X connect 135 0 160 0;
#X connect 136 0 161 0;
#X connect 137 0 162 0;
#X connect 138 0 163 0;
#X connect 139 0 164 0;
#X connect 140 0 165 0;
#X connect 141 0 166 0;
#X connect 142 0 167 0;
#X connect 143 0 168 0;
#X connect 144 0 169 0;
#X connect 145 0 170 0;
#X connect 146 0 171 0;
#X connect 147 0 172 0;
#X connect 148 0 173 0;
#X connect 149 0 8 0;
#X connect 150 0 157 0;
#X connect 151 0 152 0;
#X connect 153 0 246 0;
#X connect 154 0 201 0;
#X connect 156 0 153 0;
#X connect 157 0 151 0;
#X connect 158 0 185 1;
#X connect 159 0 186 1;
#X connect 160 0 187 1;
#X connect 161 0 188 1;
#X connect 162 0 189 1;
#X connect 163 0 190 1;
#X connect 164 0 191 1;
#X connect 165 0 192 1;
#X connect 166 0 193 1;
#X connect 167 0 194 1;
#X connect 168 0 195 1;
#X connect 169 0 196 1;
#X connect 170 0 197 1;
#X connect 171 0 198 1;
#X connect 172 0 199 1;
#X connect 173 0 200 1;
#X connect 174 0 103 0;
#X connect 175 0 104 0;
#X connect 176 0 105 0;
#X connect 177 0 106 0;
#X connect 182 0 107 0;
#X connect 183 0 107 0;
#X connect 184 0 107 0;
#X connect 185 0 108 0;
#X connect 186 0 108 0;
#X connect 187 0 108 0;
#X connect 188 0 108 0;
#X connect 189 0 108 0;
#X connect 190 0 108 0;
#X connect 191 0 108 0;
#X connect 192 0 108 0;
#X connect 193 0 108 0;
#X connect 194 0 108 0;
#X connect 195 0 108 0;
#X connect 196 0 108 0;
#X connect 197 0 108 0;
#X connect 198 0 108 0;
#X connect 199 0 108 0;
#X connect 200 0 108 0;
#X connect 201 0 155 0;
#X connect 201 0 155 1;
#X connect 202 0 203 0;
#X connect 203 0 204 0;
#X connect 204 0 206 0;
#X connect 205 0 204 0;
#X connect 207 0 208 0;
#X connect 208 0 204 0;
#X connect 209 0 202 0;
#X connect 210 0 227 0;
#X connect 211 0 227 1;
#X connect 211 0 220 0;
#X connect 212 0 227 2;
#X connect 212 0 220 0;
#X connect 213 0 227 3;
#X connect 213 0 220 0;
#X connect 214 0 227 4;
#X connect 214 0 220 0;
#X connect 215 0 210 0;
#X connect 216 0 211 0;
#X connect 217 0 212 0;
#X connect 218 0 213 0;
#X connect 219 0 214 0;
#X connect 220 0 227 0;
#X connect 221 0 225 0;
#X connect 223 0 247 0;
#X connect 223 1 224 0;
#X connect 224 0 225 1;
#X connect 225 0 222 0;
#X connect 225 0 222 1;
#X connect 226 0 223 0;
#X connect 227 0 209 0;
#X connect 228 0 229 0;
#X connect 229 0 230 0;
#X connect 230 0 231 0;
#X connect 230 0 250 0;
#X connect 231 0 232 0;
#X connect 233 0 245 0;
#X connect 234 0 237 0;
#X connect 236 0 233 0;
#X connect 237 0 235 0;
#X connect 237 0 235 1;
#X connect 242 0 241 0;
#X connect 243 0 241 0;
#X connect 244 0 109 0;
#X connect 245 0 234 0;
#X connect 246 0 154 0;
#X connect 247 0 221 0;
#X connect 249 0 248 0;
#X connect 250 0 269 0;
#X connect 251 0 256 0;
#X connect 252 0 257 0;
#X connect 253 0 266 0;
#X connect 254 0 264 0;
#X connect 255 0 263 0;
#X connect 256 0 253 0;
#X connect 257 0 254 0;
#X connect 263 0 202 0;
#X connect 264 0 255 1;
#X connect 264 0 265 0;
#X connect 265 0 255 0;
#X connect 266 0 255 0;
#X connect 268 0 267 0;
#X connect 269 0 258 0;
#X connect 269 1 259 0;
#X connect 269 2 260 0;
#X connect 269 3 261 0;
#X connect 269 4 262 0;
#X connect 269 5 271 0;
